<svg xmlns="http://www.w3.org/2000/svg" xmlns:xlink="http://www.w3.org/1999/xlink" id="visual" version="1.1" viewBox="0 429 900 172"><path d="M0 522L30 512.7C60 503.3 120 484.7 180 474.8C240 465 300 464 360 470.3C420 476.7 480 490.3 540 497.8C600 505.3 660 506.7 720 494.2C780 481.7 840 455.3 870 442.2L900 429L900 601L870 601C840 601 780 601 720 601C660 601 600 601 540 601C480 601 420 601 360 601C300 601 240 601 180 601C120 601 60 601 30 601L0 601Z" fill="#d5ddea" stroke-linecap="round" stroke-linejoin="miter"/></svg>